:FULLY-SPECIFIED
:FORCE-ALL-JOINTS-BE-3DOF
:DEGREES
404
root 9.75001 16.7939 20.632 7.37283 -0.529777 -7.02347
lfemur -41.4441 2.24002 -13.3565
ltibia 30.6005 -0 0
lfoot -8.80147 10.3694 -0.0119181
ltoes -11.5754 0 0
rfemur 14.6028 5.95697 32.1251
rtibia 5.16197 -0 0
rfoot -7.38404 6.23303 0.0865569
rtoes -15.9856 0 0
lowerback -8.3497 2.84533 3.13218
upperback -0.709028 3.35188 3.45402
thorax 3.93936 1.68943 2.25822
lowerneck -19.4239 -6.2456 -13.1645
upperneck 21.5882 -8.10147 13.092
head 11.342 -3.25386 5.76047
lclavicle -5.34234e-16 -2.74323e-14 0
lhumerus -52.9117 -10.6396 96.25
lradius 26.8973 -0 0
lwrist 7.16499 0 0
lhand -7.74625 -21.1246 0.0104507
lfingers 7.12502 -0 0
lthumb 18.1513 8.0246 0.0044536
rclavicle -5.34234e-16 -2.74323e-14 0
rhumerus -31.1553 14.4507 -86.3742
rradius 38.8855 -0 0
rwrist -17.3787 0 0
rhand -29.5589 -24.1095 0.00042379
rfingers 7.12502 -0 0
rthumb -2.89146 -54.0688 0.000362302
405
root 9.76275 16.7859 20.7728 7.41257 -0.684496 -7.14992
lfemur -41.6876 2.14965 -13.2181
ltibia 29.7618 -0 0
lfoot -8.62617 10.3367 -0.0105158
ltoes -11.8901 0 0
rfemur 15.4634 5.92636 32.2208
rtibia 4.42455 -0 0
rfoot -7.02694 6.3495 0.076366
rtoes -15.9347 0 0
lowerback -8.4284 2.93469 3.22402
upperback -0.703839 3.45671 3.47748
thorax 3.98852 1.74271 2.24421
lowerneck -19.4017 -6.24494 -13.1824
upperneck 21.5861 -8.1005 13.104
head 11.3382 -3.2543 5.76848
lclavicle -5.34234e-16 -2.74323e-14 0
lhumerus -53.1147 -10.4018 96.1871
lradius 26.8421 -0 0
lwrist 7.01128 0 0
lhand -7.55379 -21.0985 0.00922097
lfingers 7.12502 -0 0
lthumb 18.3367 8.03616 0.00392955
rclavicle -5.34234e-16 -2.74323e-14 0
rhumerus -31.0598 14.3576 -86.4355
rradius 38.7427 -0 0
rwrist -17.2315 0 0
rhand -29.5199 -24.1043 0.000373932
rfingers 7.12502 -0 0
rthumb -2.85378 -54.0642 0.000319678
406
root 9.77549 16.7779 20.9136 7.45265 -0.839127 -7.27649
lfemur -41.9312 2.05987 -13.0792
ltibia 28.923 -0 0
lfoot -8.45086 10.304 -0.00901329
ltoes -12.2047 0 0
rfemur 16.3239 5.89433 32.316
rtibia 3.68712 -0 0
rfoot -6.66986 6.4659 0.0654496
rtoes -15.8839 0 0
lowerback -8.50696 3.02417 3.31575
upperback -0.698606 3.56154 3.50095
thorax 4.03767 1.79601 2.23024
lowerneck -19.3794 -6.24428 -13.2004
upperneck 21.5841 -8.09952 13.1159
head 11.3344 -3.25474 5.77649
lclavicle -5.34234e-16 -2.74323e-14 0
lhumerus -53.3179 -10.1642 96.1233
lradius 26.7868 -0 0
lwrist 6.85756 0 0
lhand -7.36134 -21.0724 0.00790346
lfingers 7.12502 -0 0
lthumb 18.522 8.04772 0.0033681
rclavicle -5.34234e-16 -2.74323e-14 0
rhumerus -30.9643 14.2646 -86.497
rradius 38.6 -0 0
rwrist -17.0844 0 0
rhand -29.4809 -24.099 0.000320513
rfingers 7.12502 -0 0
rthumb -2.8161 -54.0595 0.00027401
407
root 9.78823 16.77 21.0544 7.49307 -0.993669 -7.40318
lfemur -42.1751 1.97068 -12.94
ltibia 28.0842 -0 0
lfoot -8.27556 10.2713 -0.00741074
ltoes -12.5194 0 0
rfemur 17.1843 5.86087 32.4107
rtibia 2.9497 -0 0
rfoot -6.31281 6.58222 0.0538079
rtoes -15.833 0 0
lowerback -8.58538 3.11377 3.40736
upperback -0.69333 3.66636 3.52444
thorax 4.08681 1.84931 2.21632
lowerneck -19.3572 -6.24362 -13.2183
upperneck 21.5821 -8.09855 13.1278
head 11.3306 -3.25518 5.7845
lclavicle -5.34234e-16 -2.74323e-14 0
lhumerus -53.5212 -9.92683 96.0588
lradius 26.7316 -0 0
lwrist 6.70385 0 0
lhand -7.16888 -21.0462 0.0064982
lfingers 7.12502 -0 0
lthumb 18.7073 8.05928 0.00276925
rclavicle -5.34234e-16 -2.74323e-14 0
rhumerus -30.8687 14.1718 -86.5586
rradius 38.4573 -0 0
rwrist -16.9372 0 0
rhand -29.4419 -24.0938 0.000263533
rfingers 7.12502 -0 0
rthumb -2.77842 -54.0549 0.000225296
408
root 9.80097 16.762 21.1952 7.53383 -1.14812 -7.52997
lfemur -42.4191 1.88209 -12.8004
ltibia 27.2454 -0 0
lfoot -8.10026 10.2386 -0.00570811
ltoes -12.8341 0 0
rfemur 18.0446 5.82601 32.5049
rtibia 2.21227 -0 0
rfoot -5.95578 6.69848 0.0414416
rtoes -15.7822 0 0
lowerback -8.66367 3.2035 3.49886
upperback -0.68801 3.77118 3.54794
thorax 4.13594 1.90263 2.20244
lowerneck -19.3349 -6.24294 -13.2363
upperneck 21.58 -8.09757 13.1398
head 11.3268 -3.25562 5.7925
lclavicle -5.34234e-16 -2.74323e-14 0
lhumerus -53.7246 -9.68968 95.9935
lradius 26.6763 -0 0
lwrist 6.55013 0 0
lhand -6.97643 -21.0201 0.00500521
lfingers 7.12502 -0 0
lthumb 18.8927 8.07084 0.002133
rclavicle -5.34234e-16 -2.74323e-14 0
rhumerus -30.7731 14.079 -86.6204
rradius 38.3146 -0 0
rwrist -16.79 0 0
rhand -29.4029 -24.0886 0.000202991
rfingers 7.12502 -0 0
rthumb -2.74074 -54.0503 0.000173539
409
root 9.81371 16.754 21.336 7.57494 -1.30248 -7.65689
lfemur -42.6634 1.79409 -12.6604
ltibia 26.4067 -0 0
lfoot -7.92496 10.2059 -0.00390544
ltoes -13.1488 0 0
rfemur 18.9048 5.78975 32.5985
rtibia 1.47485 -0 0
rfoot -5.59877 6.81465 0.0283511
rtoes -15.7313 0 0
lowerback -8.74182 3.29336 3.59024
upperback -0.682646 3.87601 3.57146
thorax 4.18505 1.95596 2.18861
lowerneck -19.3127 -6.24226 -13.2542
upperneck 21.578 -8.09659 13.1517
head 11.3231 -3.25606 5.80051
lclavicle -5.34234e-16 -2.74323e-14 0
lhumerus -53.9282 -9.45275 95.9273
lradius 26.6211 -0 0
lwrist 6.39642 0 0
lhand -6.78397 -20.994 0.0034245
lfingers 7.12502 -0 0
lthumb 19.078 8.08239 0.00145938
rclavicle -5.34234e-16 -2.74323e-14 0
rhumerus -30.6773 13.9863 -86.6823
rradius 38.1719 -0 0
rwrist -16.6428 0 0
rhand -29.3638 -24.0834 0.000138888
rfingers 7.12502 -0 0
rthumb -2.70305 -54.0457 0.000118737
410
root 9.82645 16.7461 21.4768 7.61639 -1.45675 -7.78392
lfemur -42.9078 1.70668 -12.5201
ltibia 25.5679 -0 0
lfoot -7.74966 10.1732 -0.00200273
ltoes -13.4634 0 0
rfemur 19.7649 5.75209 32.6916
rtibia 0.737424 -0 0
rfoot -5.24179 6.93074 0.014537
rtoes -15.6805 0 0
lowerback -8.81983 3.38334 3.68151
upperback -0.677238 3.98082 3.59498
thorax 4.23416 2.00931 2.17482
lowerneck -19.2904 -6.24157 -13.2722
upperneck 21.5759 -8.09562 13.1637
head 11.3193 -3.2565 5.80852
lclavicle -5.34234e-16 -2.74323e-14 0
lhumerus -54.1319 -9.21606 95.8604
lradius 26.5658 -0 0
lwrist 6.2427 0 0
lhand -6.59152 -20.9679 0.00175609
lfingers 7.12502 -0 0
lthumb 19.2634 8.09395 0.000748374
rclavicle -5.34234e-16 -2.74323e-14 0
rhumerus -30.5815 13.8938 -86.7443
rradius 38.0292 -0 0
rwrist -16.4957 0 0
rhand -29.3248 -24.0781 7.12247e-05
rfingers 7.12502 -0 0
rthumb -2.66537 -54.041 6.08907e-05
411
root 9.83919 16.7381 21.6176 7.65819 -1.61093 -7.91108
lfemur -43.1525 1.61988 -12.3794
ltibia 24.7291 0 0
lfoot -7.57436 10.1405 0
ltoes -13.7781 0 0
rfemur 20.6248 5.71304 32.7841
rtibia 2.8625e-14 0 0
rfoot -4.88484 7.04674 0
rtoes -15.6296 0 0
lowerback -8.89771 3.47344 3.77266
upperback -0.671787 4.08564 3.61852
thorax 4.28325 2.06266 2.16108
lowerneck -19.2682 -6.24088 -13.2901
upperneck 21.5739 -8.09464 13.1756
head 11.3155 -3.25694 5.81653
lclavicle -5.34234e-16 -2.74323e-14 0
lhumerus -54.3357 -8.97961 95.7926
lradius 26.5106 0 0
lwrist 6.08899 0 0
lhand -6.39907 -20.9418 0
lfingers 7.12502 0 0
lthumb 19.4487 8.1055 0
rclavicle -5.34234e-16 -2.74323e-14 0
rhumerus -30.4857 13.8013 -86.8065
rradius 37.8865 0 0
rwrist -16.3485 0 0
rhand -29.2858 -24.0729 0
rfingers 7.12502 0 0
rthumb -2.62769 -54.0364 0
